<svg width="162" height="27" viewBox="0 0 162 27" fill="none" xmlns="http://www.w3.org/2000/svg">
<g clip-path="url(#clip0_1519_23991)">
<path d="M7.94943 1.65225L1.90251 1.03111C1.00734 0.93977 0.331402 1.7984 0.6237 2.63875L4.02167 12.6682L11.9685 13.4903L7.94943 1.65225Z" fill="#00989B"/>
<path d="M15.9644 1.65314L23.9113 0.831055L19.8922 12.6691L11.9453 13.4912L15.9644 1.65314Z" fill="#00989B"/>
<path d="M15.9644 25.3293L22.0113 25.9504C22.9065 26.0418 23.5824 25.1831 23.2901 24.3428L19.8922 14.3133L11.9453 13.4912L15.9644 25.3293Z" fill="#00989B"/>
<path d="M7.94686 25.3293L0 26.1697L4.00083 14.3133L11.9477 13.4912L7.94686 25.3293Z" fill="#00989B"/>
</g>
<path d="M35.8396 23.1062V10.921L43.9284 23.1062H48.0766V3.92102H43.9284V16.1321L35.8396 3.92102H31.6914V23.1062H35.8396Z" fill="#1D2939"/>
<path d="M70.4541 13.4877C70.4541 7.62843 66.6171 3.58398 61.043 3.58398C55.4949 3.58398 51.6578 7.65435 51.6578 13.5136C51.6578 19.3729 55.4689 23.4173 61.0171 23.4173C66.5911 23.4173 70.4541 19.3469 70.4541 13.4877ZM66.0208 13.4877C66.0208 17.1173 64.1541 19.3729 61.0689 19.3729C57.9578 19.3729 56.0911 17.1692 56.0911 13.4877C56.0911 9.83213 57.9578 7.62843 61.0689 7.62843C64.1541 7.62843 66.0208 9.83213 66.0208 13.4877Z" fill="#1D2939"/>
<path d="M73.5879 17.8692H82.4546V14.3432H73.5879V17.8692Z" fill="#1D2939"/>
<path d="M94.9486 23.4173C99.7449 23.4173 103.323 20.5914 103.997 16.3136H99.6412C99.1227 18.2062 97.3857 19.3729 95.0264 19.3729C91.9412 19.3729 90.0227 17.1173 90.0227 13.5136C90.0227 9.85806 91.9153 7.65436 95.0264 7.65436C97.3338 7.65436 98.9672 8.74324 99.5375 10.6618H103.971C103.375 6.35806 99.9264 3.60991 95.1301 3.60991C89.4005 3.60991 85.5894 7.55065 85.5894 13.5395C85.5894 19.6062 89.1931 23.4173 94.9486 23.4173Z" fill="#1D2939"/>
<path d="M125.187 13.4877C125.187 7.62843 121.35 3.58398 115.776 3.58398C110.228 3.58398 106.391 7.65435 106.391 13.5136C106.391 19.3729 110.202 23.4173 115.75 23.4173C121.324 23.4173 125.187 19.3469 125.187 13.4877ZM120.754 13.4877C120.754 17.1173 118.887 19.3729 115.802 19.3729C112.691 19.3729 110.824 17.1692 110.824 13.4877C110.824 9.83213 112.691 7.62843 115.802 7.62843C118.887 7.62843 120.754 9.83213 120.754 13.4877Z" fill="#1D2939"/>
<path d="M136.28 23.1062C141.751 23.1062 145.562 19.1655 145.562 13.5655C145.562 7.86176 141.647 3.92102 136.021 3.92102H128.762V23.1062H136.28ZM135.606 7.80991C139.08 7.80991 141.128 9.93584 141.128 13.5655C141.128 17.1173 139.184 19.2173 135.865 19.2173H132.962V7.80991H135.606Z" fill="#1D2939"/>
<path d="M161.318 23.1062V19.2173H153.333V15.2507H160.411V11.5692H153.333V7.80991H161.318V3.92102H149.133V23.1062H161.318Z" fill="#1D2939"/>
<defs>
<clipPath id="clip0_1519_23991">
<rect width="23.9137" height="25.3386" fill="white" transform="translate(0 0.831055)"/>
</clipPath>
</defs>
</svg>
