<svg width="22" height="27" viewBox="0 0 22 27" fill="none" xmlns="http://www.w3.org/2000/svg">
<path d="M0.648438 22.8337V20.167H3.3151V10.8337C3.3151 8.98921 3.87066 7.3501 4.98177 5.91633C6.09288 4.48344 7.53733 3.54477 9.3151 3.10033V2.16699C9.3151 1.61144 9.50977 1.13944 9.8991 0.750992C10.2875 0.361659 10.7595 0.166992 11.3151 0.166992C11.8707 0.166992 12.3427 0.361659 12.7311 0.750992C13.1204 1.13944 13.3151 1.61144 13.3151 2.16699V3.10033C15.0929 3.54477 16.5373 4.48344 17.6484 5.91633C18.7595 7.3501 19.3151 8.98921 19.3151 10.8337V20.167H21.9818V22.8337H0.648438ZM11.3151 26.8337C10.5818 26.8337 9.95422 26.5728 9.43244 26.051C8.90977 25.5283 8.64844 24.9003 8.64844 24.167H13.9818C13.9818 24.9003 13.7209 25.5283 13.1991 26.051C12.6764 26.5728 12.0484 26.8337 11.3151 26.8337ZM5.98177 20.167H16.6484V10.8337C16.6484 9.36699 16.1262 8.11144 15.0818 7.06699C14.0373 6.02255 12.7818 5.50033 11.3151 5.50033C9.84844 5.50033 8.59288 6.02255 7.54844 7.06699C6.50399 8.11144 5.98177 9.36699 5.98177 10.8337V20.167Z" fill="#1C1B1F"/>
</svg>
