<svg width="8" height="30" viewBox="0 0 8 30" fill="none" xmlns="http://www.w3.org/2000/svg">
<path d="M4.0013 0C2.16797 0 0.667969 1.5 0.667969 3.33333C0.667969 5.16667 2.16797 6.66667 4.0013 6.66667C5.83464 6.66667 7.33464 5.16667 7.33464 3.33333C7.33464 1.5 5.83464 0 4.0013 0ZM4.0013 23.3333C2.16797 23.3333 0.667969 24.8333 0.667969 26.6667C0.667969 28.5 2.16797 30 4.0013 30C5.83464 30 7.33464 28.5 7.33464 26.6667C7.33464 24.8333 5.83464 23.3333 4.0013 23.3333ZM4.0013 11.6667C2.16797 11.6667 0.667969 13.1667 0.667969 15C0.667969 16.8333 2.16797 18.3333 4.0013 18.3333C5.83464 18.3333 7.33464 16.8333 7.33464 15C7.33464 13.1667 5.83464 11.6667 4.0013 11.6667Z" fill="black"/>
</svg>
